<?xml version="1.0" standalone="no"?>
<!DOCTYPE svg PUBLIC "-//W3C//DTD SVG 20010904//EN"
 "http://www.w3.org/TR/2001/REC-SVG-20010904/DTD/svg10.dtd">
<svg version="1.0" xmlns="http://www.w3.org/2000/svg"
 width="700.000000pt" height="700.000000pt" viewBox="0 0 700.000000 700.000000"
 preserveAspectRatio="xMidYMid meet">
<metadata>
Created by potrace 1.14, written by Peter Selinger 2001-2017
</metadata>
<g transform="translate(0.000000,700.000000) scale(0.100000,-0.100000)"
fill="#000000" stroke="none">
<path d="M1829 6516 c-57 -20 -106 -54 -139 -96 -16 -21 -30 -41 -30 -44 0 -4
-16 -32 -35 -62 -19 -30 -35 -56 -35 -58 0 -3 -26 -49 -58 -103 -32 -54 -61
-105 -65 -113 -4 -8 -17 -31 -28 -50 -50 -83 -200 -341 -227 -391 -17 -30
-143 -250 -282 -489 -139 -239 -263 -455 -277 -480 -14 -25 -29 -49 -33 -55
-4 -5 -18 -30 -32 -55 -14 -25 -67 -117 -117 -205 -299 -515 -400 -694 -411
-728 -14 -45 -15 -143 0 -181 5 -14 87 -160 182 -324 94 -163 203 -351 241
-417 37 -66 73 -127 78 -135 48 -78 249 -434 249 -441 0 -5 5 -9 10 -9 6 0 10
-4 10 -10 0 -5 27 -55 60 -111 33 -55 60 -102 60 -103 0 -2 36 -65 80 -140 44
-75 80 -141 80 -146 0 -6 5 -10 10 -10 6 0 10 -4 10 -9 0 -5 71 -132 158 -283
87 -150 210 -362 273 -471 63 -109 126 -213 140 -230 15 -18 51 -46 80 -62
l54 -30 1665 0 1665 0 55 31 c57 32 105 87 151 171 26 47 231 403 250 433 27
44 249 432 249 436 0 3 8 17 19 32 10 15 79 133 154 262 74 129 144 251 156
270 11 19 24 42 28 50 4 8 26 47 48 85 23 39 53 90 67 115 81 143 248 431 271
467 15 24 27 44 27 47 0 3 146 260 169 296 44 69 120 213 131 245 16 49 16
137 -1 179 -13 31 -383 682 -419 736 -6 8 -13 22 -17 30 -4 8 -33 59 -65 113
-32 54 -58 101 -58 104 0 3 -8 17 -19 31 -10 15 -31 50 -45 77 -15 28 -35 64
-45 80 -10 17 -27 46 -38 65 -11 19 -96 165 -188 324 -92 159 -176 304 -186
323 -11 19 -26 44 -33 56 -8 12 -27 45 -43 73 -171 309 -466 806 -496 837 -21
21 -62 50 -90 63 l-52 24 -1640 -1 c-1317 0 -1647 -2 -1676 -13z"/>
</g>
</svg>
